<svg xmlns="http://www.w3.org/2000/svg" xmlns:xlink="http://www.w3.org/1999/xlink" width="23" height="23"><defs><path id="a" d="M1219.5 59.988c6.35 0 11.5 5.149 11.5 11.5s-5.15 11.5-11.5 11.5c-6.352 0-11.5-5.149-11.5-11.5s5.148-11.5 11.5-11.5zm-9.382 11.524a9.288 9.288 0 0 0 9.289 9.288 9.288 9.288 0 1 0 0-18.576 9.288 9.288 0 0 0-9.289 9.288zm11.973 2.285h-3.511a.875.875 0 0 1-.876-.876v-5.326a.876.876 0 1 1 1.751 0v4.45h2.636a.876.876 0 0 1 0 1.752z"/></defs><use fill="#701dbb" xlink:href="#a" transform="translate(-1208 -60)"/></svg>