<svg xmlns="http://www.w3.org/2000/svg" xmlns:xlink="http://www.w3.org/1999/xlink" width="84" height="51"><defs><path id="a" d="M739.19 1179.982c-.394 0-.78-.117-1.107-.337-7.159-4.805-9.09-14.593-4.307-21.818 2.316-3.499 5.844-5.883 9.933-6.712a15.6 15.6 0 0 1 4.29-.269 2.025 2.025 0 0 1-.02-.808c1.149-6.469 4.731-12.1 10.086-15.858 5.355-3.757 11.842-5.189 18.269-4.033 8.701 1.567 15.642 7.65 18.596 15.59a1.99 1.99 0 0 1 .896-.172c6.074.25 11.565 3.261 15.06 8.262 2.97 4.247 4.112 9.173 3.215 13.868-.883 4.63-3.706 8.835-7.948 11.841a1.989 1.989 0 0 1-1.146.366l-65.815.08zm7.625-25.162a11.7 11.7 0 0 0-2.318.233 11.586 11.586 0 0 0-7.401 5.002c-3.455 5.218-2.21 12.227 2.723 15.91l64.535-.08c3.114-2.368 5.176-5.525 5.83-8.949.7-3.667-.186-7.4-2.56-10.796-2.708-3.874-6.922-6.244-11.607-6.542.29 1.493.448 3.031.456 4.6a2.001 2.001 0 0 1-1.983 2.02h-.011a2.002 2.002 0 0 1-1.995-1.997c-.057-9.91-7.145-18.372-16.852-20.12-5.378-.966-10.804.231-15.286 3.375-4.481 3.143-7.478 7.856-8.44 13.27a2.014 2.014 0 0 1-.336.808 15.57 15.57 0 0 1 3.863 1.886 2.017 2.017 0 0 1 .554 2.785 1.986 1.986 0 0 1-2.767.557 11.45 11.45 0 0 0-6.405-1.962zm38.3-2.673a2 2 0 0 1-1.99-1.907c-.245-4.868-4.407-8.63-9.209-8.381a2.012 2.012 0 0 1-2.092-1.905 2.003 2.003 0 0 1 1.891-2.107c7.07-.348 13.039 5.111 13.393 12.19a2.003 2.003 0 0 1-1.994 2.11z"/></defs><use fill="#6d6d6d" xlink:href="#a" transform="translate(-731 -1129)"/></svg>