<svg xmlns="http://www.w3.org/2000/svg" xmlns:xlink="http://www.w3.org/1999/xlink" width="21" height="27"><defs><path id="a" d="M723.617 173h-18.16a.678.678 0 0 1-.672-.684v-24.632c0-.378.3-.684.672-.684h12.109a.666.666 0 0 1 .47.197l.001.001v.001h.001l.001.001 6.053 6.158.001.001h.001v.002h.001l.001.001a.688.688 0 0 1 .193.478v18.476a.678.678 0 0 1-.672.684zm-17.487-1.368h16.814v-17.106h-5.38a.678.678 0 0 1-.673-.684v-5.473H706.13zm12.106-18.474h3.757l-3.757-3.822zm2.354 14.71h-12.106a.678.678 0 0 1-.673-.684c0-.378.301-.684.673-.684h12.106c.372 0 .673.306.673.684a.678.678 0 0 1-.673.684zm0-3.078h-12.106a.679.679 0 0 1-.673-.685c0-.378.301-.684.673-.684h12.106c.372 0 .673.306.673.684a.679.679 0 0 1-.673.685zm-6.053-3.08h-6.053a.678.678 0 0 1-.673-.684c0-.377.301-.684.673-.684h6.053a.68.68 0 0 1 .673.684.678.678 0 0 1-.673.685zm-.473-7.184h-5.58a.678.678 0 0 1-.673-.684v-3.079c0-.378.301-.684.673-.684h5.58c.371 0 .673.306.673.684v3.08a.678.678 0 0 1-.673.683zm-4.908-1.368h4.236v-1.71h-4.236z"/><mask id="c" width="2" height="2" x="-1" y="-1"><path fill="#fff" d="M704 147h21v26h-21z"/><use xlink:href="#a"/></mask><filter id="b" width="41" height="47" x="694" y="137" filterUnits="userSpaceOnUse"><feOffset dy="1" in="SourceGraphic" result="FeOffset1195Out"/><feGaussianBlur in="FeOffset1195Out" result="FeGaussianBlur1196Out" stdDeviation="0 0"/></filter></defs><g transform="translate(-704 -147)"><g filter="url(#b)"><use fill="none" stroke-width="0" mask="url(&quot;#c&quot;)" xlink:href="#a"/><use fill="#fff" xlink:href="#a"/></g><use fill="#fff" xlink:href="#a"/><use fill="#7d7d7d" xlink:href="#a"/></g></svg>