<svg xmlns="http://www.w3.org/2000/svg" xmlns:xlink="http://www.w3.org/1999/xlink" width="76" height="76" viewBox="0 0 76 76"><defs><path id="t4ega" d="M1088 1193h-.025a2.004 2.004 0 0 1-.906-.228l-35.958-17.966a1.999 1.999 0 0 1-1.105-1.787v-35.928a1.99 1.99 0 0 1 .184-.879l.043-.086c.205-.393.524-.69.896-.87l17.96-8.974a.523.523 0 0 1 .037-.019l17.98-8.983a2.004 2.004 0 0 1 1.788 0l35.975 17.974a1.983 1.983 0 0 1 .94.958c.133.285.191.585.185.879v35.928c0 .756-.427 1.449-1.105 1.787l-35.958 17.966a2.003 2.003 0 0 1-.906.229H1088zm2-36.73v31.5l31.995-15.986v-31.5l-15.084 7.536a.52.52 0 0 1-.037.019zm-35.995 15.514L1086 1187.77v-31.5l-31.995-15.986zm2.471-34.733l31.524 15.75 13.526-6.758-31.523-15.75zm17.998-8.992l31.523 15.75 13.527-6.758-31.524-15.75zm4.527 46.958c-.305 0-.612-.07-.894-.21l-17.997-8.993a1.998 1.998 0 0 1-1.106-1.787v-8.992a1.998 1.998 0 0 1 2.894-1.788l17.998 8.992a1.999 1.999 0 0 1 1.105 1.788v8.992a1.999 1.999 0 0 1-2 1.998zm-15.997-12.225l13.998 6.994v-4.525l-13.998-6.993z"/></defs><g><g transform="translate(-1050 -1117)"><use fill="#6d6d6d" xlink:href="#t4ega"/></g></g></svg>