<svg xmlns="http://www.w3.org/2000/svg" xmlns:xlink="http://www.w3.org/1999/xlink" width="17" height="27" viewBox="0 0 17 27"><defs><path id="5eawa" d="M878.756 172.316a.671.671 0 0 1-.594-.362l-6.945-13.234a8.395 8.395 0 0 1-.7-3.368c0-4.606 3.696-8.354 8.24-8.354 4.542 0 8.238 3.748 8.238 8.354a8.394 8.394 0 0 1-.73 3.441l-6.915 13.162a.672.672 0 0 1-.594.36zm-6.339-14.212l6.34 12.079 6.309-12.01c.388-.89.584-1.839.584-2.821 0-3.854-3.092-6.99-6.894-6.99-3.801 0-6.894 3.136-6.894 6.99 0 .956.187 1.882.555 2.752zm6.34 1.308c-2.374 0-4.305-1.958-4.305-4.365s1.93-4.365 4.304-4.365c2.374 0 4.305 1.958 4.305 4.365s-1.931 4.365-4.305 4.365zm0-7.366c-1.632 0-2.96 1.346-2.96 3 0 1.655 1.328 3.002 2.96 3.002 1.631 0 2.959-1.347 2.959-3.001 0-1.655-1.328-3.001-2.96-3.001z"/><mask id="5eawc" width="2" height="2" x="-1" y="-1"><path fill="#fff" d="M870 147h17v26h-17z"/><use xlink:href="#5eawa"/></mask><filter id="5eawb" width="37" height="47" x="860" y="137" filterUnits="userSpaceOnUse"><feOffset dy="1" in="SourceGraphic" result="FeOffset1216Out"/><feGaussianBlur in="FeOffset1216Out" result="FeGaussianBlur1217Out" stdDeviation="0 0"/></filter></defs><g><g transform="translate(-870 -147)"><g filter="url(#5eawb)"><use fill="none" stroke-width="0" mask="url(&quot;#5eawc&quot;)" xlink:href="#5eawa"/><use fill="#fff" xlink:href="#5eawa"/></g><use fill="#fff" xlink:href="#5eawa"/><use fill="#7d7d7d" xlink:href="#5eawa"/></g></g></svg>