<svg xmlns="http://www.w3.org/2000/svg" xmlns:xlink="http://www.w3.org/1999/xlink" width="26" height="25" viewBox="0 0 26 25"><defs><path id="36k3a" d="M550.966 171.285a.68.68 0 0 1-.672-.666l-.12-5.856-5.68-2.872a.679.679 0 0 1-.27-.98l.001-.002a.477.477 0 0 1 .018-.025.67.67 0 0 1 .258-.219l24.166-12.222a.668.668 0 0 1 .95.376.688.688 0 0 1-.024.507l-9.06 21.384a.69.69 0 0 1-.12.198h-.001a.547.547 0 0 1-.025.027s-.001.001 0 0a.667.667 0 0 1-.45.2l-.02.001h-.008a.661.661 0 0 1-.387-.124l-5.12-3.57-2.916 3.595a.67.67 0 0 1-.52.248zm4.302-4.89l3.937 2.745-.177-7.216zm-3.752-1.743l.084 4.1 2.153-2.655.006-.007a.147.147 0 0 1 .004-.005l9.626-11.442-5.422 4.57a.636.636 0 0 1-.03.026zm8.819-4.28l.17 6.953 6.109-14.417zm-13.494 1.186l3.903 1.974 4.314-3.636zm17.262-9.287l-14.526 7.347 7.645-1.547z"/><mask id="36k3c" width="2" height="2" x="-1" y="-1"><path fill="#fff" d="M544 148h26v24h-26z"/><use xlink:href="#36k3a"/></mask><filter id="36k3b" width="46" height="45" x="534" y="138" filterUnits="userSpaceOnUse"><feOffset dy="1" in="SourceGraphic" result="FeOffset1174Out"/><feGaussianBlur in="FeOffset1174Out" result="FeGaussianBlur1175Out" stdDeviation="0 0"/></filter></defs><g><g transform="translate(-544 -148)"><g filter="url(#36k3b)"><use fill="none" stroke-width="0" mask="url(&quot;#36k3c&quot;)" xlink:href="#36k3a"/><use fill="#fff" xlink:href="#36k3a"/></g><use fill="#fff" xlink:href="#36k3a"/><use fill="#701dbb" xlink:href="#36k3a"/></g></g></svg>