<svg xmlns="http://www.w3.org/2000/svg" xmlns:xlink="http://www.w3.org/1999/xlink" width="76" height="76" viewBox="0 0 76 76"><defs><path id="n1twa" d="M462 1193c-20.953 0-38-17.047-38-38s17.047-38 38-38 38 17.047 38 38-17.047 38-38 38zm0-72c-18.748 0-34 15.252-34 34 0 18.748 15.252 34 34 34 18.748 0 34-15.252 34-34 0-18.748-15.252-34-34-34zm0 63c-15.99 0-29-13.01-29-29s13.01-29 29-29 29 13.01 29 29-13.01 29-29 29zm0-54c-13.785 0-25 11.215-25 25s11.215 25 25 25 25-11.215 25-25-11.215-25-25-25zm9 27h-9a2 2 0 0 1-2-2v-9a2 2 0 0 1 4 0v7h7a2 2 0 0 1 0 4z"/></defs><g><g transform="translate(-424 -1117)"><use fill="#6d6d6d" xlink:href="#n1twa"/></g></g></svg>