<svg xmlns="http://www.w3.org/2000/svg" xmlns:xlink="http://www.w3.org/1999/xlink" width="9" height="9" viewBox="0 0 9 9"><defs><path id="laoaa" d="M1029.997 3616.06a5.946 5.946 0 0 1 5.937 5.941h-1.731a4.193 4.193 0 0 0-1.233-2.984 4.174 4.174 0 0 0-2.973-1.232zm.002-3.06c4.96 0 8.993 4.04 8.993 9.003h-1.73c0-4.012-3.259-7.277-7.263-7.277zm2.395 7.798c0 .66-.538 1.195-1.2 1.195-.662 0-1.199-.535-1.199-1.195s.537-1.195 1.2-1.195c.661 0 1.199.535 1.199 1.195z"/></defs><g><g transform="translate(-1030 -3613)"><use fill="#fff" xlink:href="#laoaa"/></g></g></svg>